<?xml version="1.0" encoding="UTF-8" standalone="no"?><!-- Generator: Gravit.io --><svg xmlns="http://www.w3.org/2000/svg" xmlns:xlink="http://www.w3.org/1999/xlink" style="isolation:isolate" viewBox="0 0 500 500" width="500pt" height="500pt"><defs><clipPath id="_clipPath_A8ohfvaQwREZpvmsTf3LNwYl7LBLwl5L"><rect width="500" height="500"/></clipPath></defs><g clip-path="url(#_clipPath_A8ohfvaQwREZpvmsTf3LNwYl7LBLwl5L)"><path d="M 35 0 L 465 0 C 484.317 0 500 15.683 500 35 L 500 465 C 500 484.317 484.317 500 465 500 L 35 500 C 15.683 500 0 484.317 0 465 L 0 35 C 0 15.683 15.683 0 35 0 Z" style="stroke:none;fill:#FFFFFF;stroke-miterlimit:10;"/><g><path d=" M 394.643 251.036 L 336.786 308.893 L 278.929 308.893 L 228.304 359.518 L 228.304 308.893 L 163.214 308.893 L 163.214 91.929 L 394.643 91.929 L 394.643 251.036 Z " fill="rgb(255,255,255)"/><g><g><path d=" M 148.75 63 L 76.429 135.321 L 76.429 395.679 L 163.214 395.679 L 163.214 468 L 235.536 395.679 L 293.393 395.679 L 423.571 265.5 L 423.571 63 L 148.75 63 Z  M 394.643 251.036 L 336.786 308.893 L 278.929 308.893 L 228.304 359.518 L 228.304 308.893 L 163.214 308.893 L 163.214 91.929 L 394.643 91.929 L 394.643 251.036 Z " fill="rgb(145,70,255)"/><rect x="322.321" y="142.554" width="28.929" height="86.786" transform="matrix(1,0,0,1,0,0)" fill="rgb(145,70,255)"/><rect x="242.768" y="142.554" width="28.929" height="86.786" transform="matrix(1,0,0,1,0,0)" fill="rgb(145,70,255)"/></g></g></g></g></svg>